<svg version="1.1" id="Layer_1" xmlns="http://www.w3.org/2000/svg" xmlns:xlink="http://www.w3.org/1999/xlink" x="0px" y="0px"
	 width="100%" viewBox="0 0 500 500" enable-background="new 0 0 500 500" xml:space="preserve">
<path fill="none" opacity="1.000000" stroke="none" 
	d="
M219.000000,501.000000 
	C146.000015,501.000000 73.500038,501.000000 1.000039,501.000000 
	C1.000026,334.333405 1.000026,167.666779 1.000013,1.000128 
	C167.666565,1.000086 334.333130,1.000086 500.999756,1.000043 
	C500.999847,167.666534 500.999847,334.333069 500.999939,500.999817 
	C407.166656,501.000000 313.333344,501.000000 219.000000,501.000000 
M259.325714,290.452820 
	C258.890503,292.337524 258.086121,294.220459 258.077026,296.107208 
	C257.983551,315.541748 257.990082,334.977020 258.062408,354.411774 
	C258.069672,356.351074 258.695221,358.288116 259.732819,360.453339 
	C267.195374,363.220581 275.078186,365.203644 282.027893,368.927887 
	C294.282501,375.494843 292.766663,376.766205 301.312195,366.242737 
	C301.730408,365.727722 302.228851,365.277985 302.688873,364.796844 
	C324.755371,341.717834 346.753754,318.572937 368.956604,295.625885 
	C372.555145,291.906738 372.693604,288.958527 369.919586,284.762299 
	C362.822296,274.026215 360.537170,261.923309 360.601776,249.050278 
	C361.583008,248.824020 362.476532,248.822006 363.126373,248.423111 
	C364.265076,247.724152 365.254333,246.781693 366.306183,245.941238 
	C365.304718,245.012344 364.451843,243.592880 363.276825,243.236908 
	C357.197601,241.395172 355.222809,243.262314 355.842712,250.275955 
	C353.157471,250.013718 350.514832,249.836746 347.895599,249.485428 
	C338.000061,248.158142 328.107361,246.807297 318.223785,245.394135 
	C314.614502,244.878052 311.813416,245.352768 310.017700,249.177338 
	C307.839508,253.816574 305.292786,258.309296 302.594452,262.673035 
	C292.763336,278.571930 278.041351,286.954193 259.325714,290.452820 
M228.823151,268.760803 
	C235.203766,270.415070 241.497070,272.905243 247.979752,273.582489 
	C280.300293,276.958893 306.249969,243.677124 295.076263,213.199265 
	C289.556061,198.142120 279.181641,187.869034 263.430847,183.077957 
	C245.132675,177.511978 221.957214,186.448624 211.984207,202.669678 
	C199.142197,223.557190 204.110352,254.841949 228.823151,268.760803 
M162.006454,377.480011 
	C171.102249,382.003265 180.200989,386.520569 189.292465,391.052460 
	C193.229431,393.015015 196.429199,392.985016 199.007431,388.629639 
	C200.939178,385.366394 203.422501,382.376526 205.977325,379.551758 
	C208.124619,377.177551 208.252304,375.170990 206.628174,372.434174 
	C186.067001,337.786469 165.596313,303.085083 145.067078,268.418396 
	C144.268921,267.070587 143.114700,265.933655 141.694702,264.158997 
	C135.977539,272.384399 130.316223,279.759857 125.509598,287.655609 
	C120.429802,296.000031 119.127045,297.397827 127.128746,304.702087 
	C127.737015,305.257324 128.209763,305.966309 128.718048,306.624969 
	C140.992096,322.530792 144.735214,340.384247 140.433624,359.869690 
	C139.420349,364.459534 140.503220,367.046112 144.777786,368.941223 
	C150.404709,371.435852 155.827911,374.390076 162.006454,377.480011 
M152.673538,169.819824 
	C158.483688,172.706024 164.304550,175.570938 170.100189,178.486023 
	C173.877075,180.385727 176.763016,179.549118 179.013702,175.957718 
	C182.104507,171.025726 185.298355,166.158066 188.466537,161.274841 
	C194.712677,151.647446 200.941483,142.008545 207.242706,132.417282 
	C209.236694,129.382156 209.392838,126.901909 206.623306,124.019661 
	C203.532776,120.803345 200.811691,117.166725 198.337982,113.441963 
	C196.025986,109.960701 193.472778,108.995438 189.497330,110.493874 
	C174.871124,116.006790 160.184509,121.360626 145.492401,126.696602 
	C142.255722,127.872124 141.470001,129.975937 141.648575,133.268234 
	C141.954163,138.902298 141.921234,144.571045 141.697876,150.212067 
	C141.530670,154.434845 139.138504,159.605484 140.836868,162.590164 
	C142.735596,165.926956 148.132843,167.272964 152.673538,169.819824 
M156.778748,210.282089 
	C158.736053,207.192810 160.723343,204.122040 162.644241,201.010300 
	C166.313568,195.066254 166.189240,194.718155 159.788422,191.408157 
	C154.033142,188.432007 148.264542,185.480133 142.547455,182.431961 
	C132.497528,177.073639 132.513000,177.047165 124.661453,185.021957 
	C124.195122,185.495590 123.735573,185.989197 123.207428,186.386551 
	C119.052780,189.512253 119.127365,193.097931 121.675652,197.272217 
	C127.739204,207.204788 133.609192,217.255402 139.647751,227.203445 
	C141.891708,230.900208 143.273361,230.866409 145.741180,227.169891 
	C149.341156,221.777466 152.836990,216.315521 156.778748,210.282089 
M243.996933,300.621674 
	C243.996933,298.071808 243.996933,295.521973 243.996933,292.972107 
	C243.798187,292.983185 243.599442,292.994232 243.400696,293.005310 
	C243.400696,314.300354 243.400696,335.595367 243.400696,356.890411 
	C243.599075,356.889008 243.797440,356.887604 243.995819,356.886230 
	C243.995819,338.452057 243.995819,320.017914 243.996933,300.621674 
z"/>
<path fill="none" opacity="1.000000" stroke="none" 
	d="
M259.944763,290.019470 
	C278.041351,286.954193 292.763336,278.571930 302.594452,262.673035 
	C305.292786,258.309296 307.839508,253.816574 310.017700,249.177338 
	C311.813416,245.352768 314.614502,244.878052 318.223785,245.394135 
	C328.107361,246.807297 338.000061,248.158142 347.895599,249.485428 
	C350.514832,249.836746 353.157471,250.013718 355.842712,250.275955 
	C355.222809,243.262314 357.197601,241.395172 363.276825,243.236908 
	C364.451843,243.592880 365.304718,245.012344 366.306183,245.941238 
	C365.254333,246.781693 364.265076,247.724152 363.126373,248.423111 
	C362.476532,248.822006 361.583008,248.824020 360.601776,249.050278 
	C360.537170,261.923309 362.822296,274.026215 369.919586,284.762299 
	C372.693604,288.958527 372.555145,291.906738 368.956604,295.625885 
	C346.753754,318.572937 324.755371,341.717834 302.688873,364.796844 
	C302.228851,365.277985 301.730408,365.727722 301.312195,366.242737 
	C292.766663,376.766205 294.282501,375.494843 282.027893,368.927887 
	C275.078186,365.203644 267.195374,363.220581 259.383698,359.849121 
	C259.023895,338.791687 258.979370,318.338379 259.044373,297.885437 
	C259.052704,295.262543 259.630676,292.641418 259.944763,290.019470 
z"/>
<path fill="#000000" opacity="1.000000" stroke="none" 
	d="
M228.507599,268.570679 
	C204.110352,254.841949 199.142197,223.557190 211.984207,202.669678 
	C221.957214,186.448624 245.132675,177.511978 263.430847,183.077957 
	C279.181641,187.869034 289.556061,198.142120 295.076263,213.199265 
	C306.249969,243.677124 280.300293,276.958893 247.979752,273.582489 
	C241.497070,272.905243 235.203766,270.415070 228.507599,268.570679 
z"/>
<path fill="#000000" opacity="1.000000" stroke="none" 
	d="
M161.672577,377.313354 
	C155.827911,374.390076 150.404709,371.435852 144.777786,368.941223 
	C140.503220,367.046112 139.420349,364.459534 140.433624,359.869690 
	C144.735214,340.384247 140.992096,322.530792 128.718048,306.624969 
	C128.209763,305.966309 127.737015,305.257324 127.128746,304.702087 
	C119.127045,297.397827 120.429802,296.000031 125.509598,287.655609 
	C130.316223,279.759857 135.977539,272.384399 141.694702,264.158997 
	C143.114700,265.933655 144.268921,267.070587 145.067078,268.418396 
	C165.596313,303.085083 186.067001,337.786469 206.628174,372.434174 
	C208.252304,375.170990 208.124619,377.177551 205.977325,379.551758 
	C203.422501,382.376526 200.939178,385.366394 199.007431,388.629639 
	C196.429199,392.985016 193.229431,393.015015 189.292465,391.052460 
	C180.200989,386.520569 171.102249,382.003265 161.672577,377.313354 
z"/>
<path fill="#000000" opacity="1.000000" stroke="none" 
	d="
M152.340546,169.652588 
	C148.132843,167.272964 142.735596,165.926956 140.836868,162.590164 
	C139.138504,159.605484 141.530670,154.434845 141.697876,150.212067 
	C141.921234,144.571045 141.954163,138.902298 141.648575,133.268234 
	C141.470001,129.975937 142.255722,127.872124 145.492401,126.696602 
	C160.184509,121.360626 174.871124,116.006790 189.497330,110.493874 
	C193.472778,108.995438 196.025986,109.960701 198.337982,113.441963 
	C200.811691,117.166725 203.532776,120.803345 206.623306,124.019661 
	C209.392838,126.901909 209.236694,129.382156 207.242706,132.417282 
	C200.941483,142.008545 194.712677,151.647446 188.466537,161.274841 
	C185.298355,166.158066 182.104507,171.025726 179.013702,175.957718 
	C176.763016,179.549118 173.877075,180.385727 170.100189,178.486023 
	C164.304550,175.570938 158.483688,172.706024 152.340546,169.652588 
z"/>
<path fill="#000000" opacity="1.000000" stroke="none" 
	d="
M156.577972,210.582642 
	C152.836990,216.315521 149.341156,221.777466 145.741180,227.169891 
	C143.273361,230.866409 141.891708,230.900208 139.647751,227.203445 
	C133.609192,217.255402 127.739204,207.204788 121.675652,197.272217 
	C119.127365,193.097931 119.052780,189.512253 123.207428,186.386551 
	C123.735573,185.989197 124.195122,185.495590 124.661453,185.021957 
	C132.513000,177.047165 132.497528,177.073639 142.547455,182.431961 
	C148.264542,185.480133 154.033142,188.432007 159.788422,191.408157 
	C166.189240,194.718155 166.313568,195.066254 162.644241,201.010300 
	C160.723343,204.122040 158.736053,207.192810 156.577972,210.582642 
z"/>
<path fill="#242424" opacity="1.000000" stroke="none" 
	d="
M259.635254,290.236145 
	C259.630676,292.641418 259.052704,295.262543 259.044373,297.885437 
	C258.979370,318.338379 259.023895,338.791687 259.034180,359.735535 
	C258.695221,358.288116 258.069672,356.351074 258.062408,354.411774 
	C257.990082,334.977020 257.983551,315.541748 258.077026,296.107208 
	C258.086121,294.220459 258.890503,292.337524 259.635254,290.236145 
z"/>
<path fill="#242424" opacity="1.000000" stroke="none" 
	d="
M243.996368,301.102722 
	C243.995819,320.017914 243.995819,338.452057 243.995819,356.886230 
	C243.797440,356.887604 243.599075,356.889008 243.400696,356.890411 
	C243.400696,335.595367 243.400696,314.300354 243.400696,293.005310 
	C243.599442,292.994232 243.798187,292.983185 243.996933,292.972107 
	C243.996933,295.521973 243.996933,298.071808 243.996368,301.102722 
z"/>
</svg>