<?xml version="1.0" standalone="no"?>
<!DOCTYPE svg PUBLIC "-//W3C//DTD SVG 20010904//EN"
 "http://www.w3.org/TR/2001/REC-SVG-20010904/DTD/svg10.dtd">
<svg version="1.0" xmlns="http://www.w3.org/2000/svg"
 width="500.000000pt" height="500.000000pt" viewBox="0 0 500.000000 500.000000"
 preserveAspectRatio="xMidYMid meet">
<metadata>
Created by potrace 1.14, written by Peter Selinger 2001-2017
</metadata>
<g transform="translate(0.000000,500.000000) scale(0.100000,-0.100000)"
fill="#000000" stroke="none">
<path d="M2437 4844 c-1 -1 -15 -4 -32 -7 -16 -3 -50 -11 -75 -18 -25 -7 -47
-13 -50 -14 -41 -8 -195 -110 -230 -152 -97 -116 -148 -214 -166 -323 -8 -48
-11 -173 -5 -185 2 -5 6 -21 8 -36 2 -24 -3 -29 -55 -49 -90 -35 -117 -45
-122 -46 -3 0 -16 -5 -30 -11 -14 -5 -63 -23 -110 -39 -47 -16 -88 -33 -92
-39 -4 -5 -8 -7 -8 -3 0 4 -24 -2 -52 -13 -29 -12 -59 -22 -67 -23 -8 -2 -32
22 -52 53 -90 135 -230 230 -396 269 -15 3 -75 6 -133 6 -87 -1 -118 -5 -185
-28 -121 -42 -229 -121 -315 -232 -25 -32 -70 -121 -70 -138 0 -9 -5 -16 -10
-16 -6 0 -9 -3 -8 -7 1 -5 -4 -32 -10 -61 -7 -30 -10 -58 -6 -63 3 -5 2 -9 -3
-9 -4 0 -8 -31 -8 -70 0 -38 2 -70 5 -70 3 0 6 -12 7 -28 6 -58 38 -156 64
-194 11 -14 19 -29 19 -33 0 -3 19 -30 43 -59 89 -111 222 -193 357 -222 95
-20 232 -14 315 14 46 16 63 18 71 9 10 -11 248 -407 272 -453 9 -17 6 -27
-13 -55 -13 -19 -71 -108 -130 -199 -59 -91 -109 -166 -110 -168 -1 -1 -38 9
-81 24 -361 121 -753 -123 -811 -504 -10 -72 -3 -218 13 -243 3 -5 8 -21 10
-35 6 -33 48 -116 87 -173 34 -50 136 -151 153 -151 5 0 19 -8 30 -19 30 -27
148 -71 223 -83 92 -14 227 -5 294 21 15 6 27 8 27 4 0 -3 8 1 18 9 9 9 28 19
40 23 53 16 165 107 220 180 l23 29 157 -79 c86 -43 159 -79 162 -80 3 -1 38
-18 77 -38 40 -21 74 -37 75 -37 2 1 28 -12 58 -28 l55 -30 -4 -48 c-14 -174
14 -306 88 -421 153 -235 408 -339 679 -279 140 32 282 132 373 263 35 50 70
129 62 137 -4 3 -2 6 4 6 25 0 47 223 29 302 -3 16 -8 38 -10 50 -8 40 -36
111 -62 155 l-25 44 54 57 c30 31 75 78 98 103 24 26 112 118 196 205 83 88
177 186 208 219 151 160 268 275 280 275 8 0 16 -4 19 -9 7 -11 120 -65 166
-79 74 -23 240 -37 240 -20 0 4 7 5 15 1 33 -12 198 48 273 99 42 29 117 100
155 147 23 29 80 141 80 158 0 7 5 13 10 13 6 0 8 3 4 6 -3 3 -2 17 3 30 12
30 23 107 23 159 0 46 -11 144 -17 154 -3 4 -7 19 -10 33 -6 34 -61 144 -94
188 -36 48 -105 114 -155 149 -45 31 -156 80 -194 87 -13 2 -35 7 -50 10 -86
18 -236 4 -317 -30 -19 -8 -37 -12 -40 -8 -3 3 -6 1 -6 -4 0 -6 -16 -16 -35
-24 -19 -8 -35 -17 -35 -21 0 -3 -13 -12 -30 -19 l-29 -12 -416 416 c-228 229
-415 420 -415 424 0 4 11 24 25 44 29 43 71 135 79 174 16 81 19 105 19 169
-1 39 -4 84 -7 100 -4 17 -8 39 -10 50 -9 51 -61 156 -107 217 -100 134 -242
218 -409 244 -42 6 -149 12 -153 8z m168 -168 c60 -15 88 -27 141 -61 134 -86
213 -221 220 -375 9 -211 -122 -401 -322 -466 -61 -20 -184 -26 -242 -13 -79
17 -169 68 -231 130 -97 96 -143 214 -136 348 10 213 153 385 360 436 48 11
167 12 210 1z m-1680 -636 c89 -37 126 -61 181 -115 102 -99 144 -203 140
-347 -2 -87 -5 -100 -43 -179 -28 -55 -59 -102 -95 -137 -112 -113 -288 -162
-440 -122 -56 15 -138 51 -138 62 0 4 -6 8 -14 8 -21 0 -123 115 -150 169 -68
132 -69 287 -5 419 55 112 161 203 287 243 66 21 226 20 277 -1z m1043 -147
c11 -21 44 -63 71 -95 28 -31 51 -59 51 -62 0 -3 -21 -38 -47 -78 -27 -40 -50
-77 -53 -83 -5 -10 -71 -112 -131 -203 -16 -24 -29 -47 -29 -52 0 -4 -3 -10
-8 -12 -4 -1 -22 -26 -40 -55 -30 -46 -36 -51 -57 -43 -30 11 -327 161 -342
172 -8 6 -9 19 -2 41 22 74 28 179 17 281 l-3 29 200 74 c110 40 229 84 265
97 36 14 70 25 76 25 6 1 20 -16 32 -36z m1339 -593 c339 -339 417 -422 407
-432 -32 -34 -88 -153 -93 -200 -1 -3 -16 -5 -33 -2 -18 2 -51 6 -73 9 -45 5
-92 12 -145 20 -19 3 -51 8 -70 10 -19 2 -57 7 -85 11 -27 4 -58 7 -67 8 -10
0 -19 5 -19 11 -1 5 -3 24 -4 40 -17 204 -127 383 -299 490 -149 91 -333 117
-496 69 -110 -33 -212 -96 -292 -183 l-64 -69 -39 23 c-22 13 -39 28 -38 34 2
6 45 75 96 153 52 79 124 190 161 248 38 58 70 107 72 109 1 2 18 -2 36 -9
116 -42 227 -54 353 -36 47 6 156 49 206 81 30 19 57 35 60 35 3 0 195 -189
426 -420z m-1821 -146 c168 -84 174 -88 161 -108 -8 -12 -59 -91 -113 -176
-115 -180 -117 -183 -133 -167 -6 6 -11 15 -11 20 0 4 -13 28 -30 52 -16 24
-30 46 -30 49 0 3 -29 52 -63 108 -35 57 -72 118 -81 137 l-18 34 44 41 c24
23 52 53 62 69 10 15 23 27 28 27 5 0 88 -39 184 -86z m1083 42 c101 -12 208
-70 281 -153 129 -147 153 -349 63 -527 -49 -97 -188 -211 -282 -231 -12 -3
-31 -7 -43 -10 -33 -8 -138 -8 -174 -1 -143 28 -274 129 -335 260 -36 77 -40
92 -44 182 -4 85 7 139 46 223 37 80 131 175 213 214 63 31 77 35 151 44 28 3
52 7 54 9 2 2 7 2 10 0 3 -2 30 -7 60 -10z m-666 -267 c-1 -8 -4 -25 -8 -39
-24 -100 -25 -210 -1 -310 11 -49 48 -130 87 -190 83 -128 217 -222 371 -259
l68 -16 0 -357 0 -356 -49 -11 c-27 -6 -73 -19 -102 -31 -29 -11 -56 -16 -60
-12 -12 14 -259 430 -259 437 0 3 -10 21 -23 38 -13 18 -32 49 -42 70 -11 20
-23 37 -27 37 -5 0 -8 5 -8 11 0 8 -137 242 -330 564 l-18 30 59 90 c33 50
101 154 151 232 l92 142 51 -28 c27 -15 49 -34 48 -42z m2453 17 c260 -82 393
-354 299 -610 -54 -147 -187 -262 -344 -295 -62 -13 -177 -7 -236 14 -205 70
-330 253 -321 469 4 82 8 99 54 195 30 62 110 147 174 185 114 66 248 81 374
42z m-1109 -391 c18 -3 61 -9 95 -14 35 -6 86 -13 114 -16 28 -3 71 -9 95 -13
l43 -7 2 -50 c2 -28 5 -59 7 -70 24 -103 50 -163 102 -239 l26 -39 -23 -25
c-13 -14 -66 -71 -118 -125 -52 -55 -111 -116 -130 -137 -39 -41 -340 -356
-466 -487 l-81 -85 -29 25 c-57 47 -155 95 -229 113 -11 3 -27 7 -35 9 -8 2
-21 4 -27 4 -10 1 -13 80 -13 360 l0 358 43 7 c127 20 281 114 369 226 35 44
108 187 108 210 0 12 25 11 147 -5z m-1812 -212 c11 -21 55 -96 98 -167 42
-71 77 -130 77 -132 0 -2 39 -66 130 -214 11 -19 126 -214 150 -255 9 -16 56
-95 104 -174 47 -79 86 -147 86 -150 0 -3 -18 -26 -40 -51 -49 -55 -54 -61
-68 -86 -6 -10 -15 -25 -20 -32 -7 -11 -72 18 -293 128 -156 79 -285 143 -286
144 -2 1 2 18 7 37 23 77 31 205 17 279 -20 112 -75 223 -153 308 -30 33 -54
63 -54 66 0 10 213 336 219 336 4 0 15 -17 26 -37z m-542 -328 c181 -47 311
-186 348 -373 27 -130 -21 -293 -116 -394 -187 -200 -492 -204 -679 -9 -147
155 -174 376 -68 561 30 54 116 137 169 165 21 11 40 23 43 26 3 3 16 9 30 12
14 3 41 10 60 15 54 15 150 14 213 -3z m1701 -775 c91 -22 173 -67 237 -132
211 -216 172 -559 -83 -721 -77 -49 -148 -70 -242 -70 -94 0 -122 5 -191 35
-119 53 -213 154 -257 276 -22 60 -29 195 -15 262 24 106 122 237 220 294 96
57 230 79 331 56z"/>
</g>
</svg>
